<?xml version="1.0" encoding="utf-8"?>
<!-- Generator: Adobe Illustrator 25.4.1, SVG Export Plug-In . SVG Version: 6.00 Build 0)  -->
<svg version="1.1" id="Layer_1" xmlns="http://www.w3.org/2000/svg" xmlns:xlink="http://www.w3.org/1999/xlink" x="0px" y="0px"
	 viewBox="0 0 219 41.9" style="enable-background:new 0 0 219 41.9;" xml:space="preserve">
<style type="text/css">
	.st0{fill:#383838;}
	.st1{fill:#999999;}
	.st2{fill:#17DA93;}
	.st3{fill:#1394D7;}
</style>
<g>
	<path class="st0" d="M95.8,16.4c-0.4-1.4-0.6-3-0.6-4.8s0.2-3.4,0.6-4.8s1-2.5,1.6-3.3c0.7-0.8,1.5-1.5,2.4-2
		c0.9-0.5,1.9-0.9,2.8-1c0.9-0.2,1.9-0.3,2.9-0.3c2.3,0,4.5,0.4,6.7,1.3v3.7c-2.1-1-4.2-1.5-6.4-1.5c-1,0-1.9,0.1-2.6,0.3
		c-0.7,0.2-1.4,0.5-2.1,1s-1.2,1.3-1.5,2.4c-0.4,1.1-0.5,2.5-0.5,4.1s0.2,3,0.5,4.1c0.4,1.1,0.9,1.9,1.5,2.4s1.4,0.9,2.1,1
		c0.7,0.2,1.6,0.3,2.6,0.3c2.1,0,4.3-0.5,6.4-1.5v3.7c-2.2,0.9-4.5,1.3-6.7,1.3c-1,0-2-0.1-2.9-0.3c-0.9-0.2-1.8-0.5-2.8-1
		c-0.9-0.5-1.8-1.2-2.4-2S96.2,17.8,95.8,16.4z"/>
	<path class="st0" d="M114.6,17.3c0-0.3,0-0.7,0.1-1c0.1-0.4,0.2-0.8,0.5-1.3c0.3-0.5,0.7-1,1.1-1.4s1.2-0.7,2.1-1
		c0.9-0.3,2-0.4,3.3-0.4c0.9,0,1.9,0.1,2.9,0.2c0-2.1-1.2-3.2-3.5-3.2c-1.9,0-3.5,0.3-4.9,0.8V6.7c1.5-0.6,3.2-0.8,5.1-0.8
		c2.4,0,4.2,0.6,5.5,1.8c1.3,1.2,1.9,3,1.9,5.3v4.5c0,1.5-0.6,2.8-1.7,4c-1.1,1.1-2.9,1.7-5.3,1.7c-2.5,0-4.3-0.6-5.4-1.7
		C115.2,20.2,114.6,18.9,114.6,17.3z M118.6,16.8c0,1.8,1,2.7,3.1,2.7c0,0,0,0,0,0c2,0,3-0.8,3-2.5v-2.1c-0.9-0.1-1.7-0.2-2.4-0.2
		C119.9,14.6,118.6,15.3,118.6,16.8z"/>
	<path class="st0" d="M133.1,22.7V7.6c0.3-0.1,0.6-0.3,1.1-0.5c0.5-0.2,1.4-0.4,2.9-0.8c1.4-0.3,2.9-0.5,4.3-0.5v3.4
		c-1.7,0-3.1,0.2-4.3,0.6v12.9H133.1z"/>
	<path class="st0" d="M146.9,0.5h4l5.1,16.8l5.4-16.8h3.5l5.2,16.2l5-16.2h4L172,22.7h-3.8l-5-15.6l-5,15.6h-4.1L146.9,0.5z"/>
	<path class="st0" d="M178.6,17.3c0-0.3,0-0.7,0.1-1c0.1-0.4,0.2-0.8,0.5-1.3c0.3-0.5,0.7-1,1.1-1.4s1.2-0.7,2.1-1
		c0.9-0.3,2-0.4,3.3-0.4c0.9,0,1.9,0.1,2.9,0.2c0-2.1-1.2-3.2-3.5-3.2c-1.9,0-3.5,0.3-4.9,0.8V6.7c1.5-0.6,3.2-0.8,5.1-0.8
		c2.4,0,4.2,0.6,5.5,1.8c1.3,1.2,1.9,3,1.9,5.3v4.5c0,1.5-0.6,2.8-1.7,4c-1.1,1.1-2.9,1.7-5.3,1.7c-2.5,0-4.3-0.6-5.4-1.7
		C179.2,20.2,178.6,18.9,178.6,17.3z M182.6,16.8c0,1.8,1,2.7,3.1,2.7c0,0,0,0,0,0c2,0,3-0.8,3-2.5v-2.1c-0.9-0.1-1.7-0.2-2.4-0.2
		C183.9,14.6,182.6,15.3,182.6,16.8z"/>
	<path class="st0" d="M196.5,22.7V7.6c0.3-0.1,0.6-0.3,1.1-0.5c0.5-0.2,1.4-0.4,2.9-0.8c1.4-0.3,2.9-0.5,4.3-0.5v3.4
		c-1.7,0-3.1,0.2-4.3,0.6v12.9H196.5z"/>
	<path class="st0" d="M207,11c0-1.7,0.6-3,1.8-3.9c1.2-0.9,2.6-1.3,4.4-1.3c1.7,0,3.2,0.4,4.5,1.2v3c-1.1-0.5-2.4-0.8-3.8-0.8
		c-1.9,0-2.9,0.5-2.9,1.4c0,0.5,0.3,0.8,0.8,1.1c0.5,0.3,1.2,0.5,2,0.7c0.8,0.2,1.6,0.5,2.3,0.8c0.8,0.3,1.4,0.9,2,1.7
		c0.5,0.8,0.8,1.9,0.8,3.1c0,1.4-0.6,2.5-1.7,3.5c-1.1,0.9-2.6,1.4-4.5,1.4c-1.9,0-3.7-0.5-5.3-1.4v-3.6c1.5,1,3,1.5,4.7,1.5
		c1.2,0,1.9-0.1,2.2-0.4c0.3-0.3,0.5-0.7,0.5-1.2c0-0.5-0.3-0.9-0.8-1.2c-0.5-0.3-1.2-0.6-2-0.8c-0.8-0.2-1.6-0.5-2.3-0.8
		c-0.8-0.3-1.4-0.8-2-1.5C207.3,13,207,12.1,207,11z"/>
</g>
<g>
	<path class="st1" d="M99.3,37.6v-6.4h1.4v2.3c0.3-0.1,0.7-0.1,1-0.1c0.9,0,1.6,0.3,2.1,0.8c0.5,0.5,0.7,1.3,0.7,2.2
		c0,0.5-0.1,1-0.2,1.4c-0.1,0.4-0.3,0.7-0.5,0.9c-0.2,0.2-0.4,0.4-0.7,0.5c-0.3,0.1-0.5,0.2-0.7,0.2s-0.4,0-0.6,0
		c-0.9,0-1.5-0.2-1.9-0.6C99.5,38.7,99.3,38.2,99.3,37.6z M100.8,37.8c0,0.4,0.4,0.6,1.1,0.6c0.5,0,0.8-0.2,1-0.5s0.3-0.8,0.3-1.5
		c0-0.7-0.1-1.1-0.4-1.4s-0.6-0.4-1-0.4c-0.4,0-0.7,0-0.9,0.1V37.8z"/>
	<path class="st1" d="M105.3,33.6h1.5l1.3,4.2l1.3-4.2h1.4l-2.2,6.1c-0.3,0.9-0.7,1.5-1,1.8s-0.8,0.5-1.2,0.5
		c-0.3,0-0.6-0.1-0.9-0.2v-1.2c0.2,0.1,0.5,0.1,0.7,0.1c0.4,0,0.8-0.5,1.2-1.4L105.3,33.6z"/>
	<path class="st1" d="M114.5,37.3c-0.2-0.5-0.2-1.1-0.2-1.7s0.1-1.2,0.2-1.7s0.3-0.9,0.6-1.2s0.5-0.5,0.9-0.7c0.3-0.2,0.7-0.3,1-0.4
		s0.7-0.1,1-0.1c0.8,0,1.6,0.2,2.4,0.5v1.3c-0.8-0.4-1.5-0.5-2.3-0.5c-0.4,0-0.7,0-0.9,0.1s-0.5,0.2-0.8,0.4s-0.4,0.5-0.6,0.9
		s-0.2,0.9-0.2,1.5s0.1,1.1,0.2,1.5s0.3,0.7,0.6,0.9s0.5,0.3,0.8,0.4s0.6,0.1,0.9,0.1c0.8,0,1.5-0.2,2.3-0.5v1.3
		c-0.8,0.3-1.6,0.5-2.4,0.5c-0.4,0-0.7,0-1-0.1s-0.7-0.2-1-0.4s-0.6-0.4-0.9-0.7S114.6,37.8,114.5,37.3z"/>
	<path class="st1" d="M121.7,37.6c0-0.1,0-0.2,0-0.4s0.1-0.3,0.2-0.5c0.1-0.2,0.2-0.4,0.4-0.5s0.4-0.3,0.8-0.4s0.7-0.2,1.2-0.2
		c0.3,0,0.7,0,1.1,0.1c0-0.8-0.4-1.1-1.3-1.1c-0.7,0-1.3,0.1-1.8,0.3v-1.2c0.6-0.2,1.2-0.3,1.8-0.3c0.9,0,1.5,0.2,2,0.7
		c0.5,0.4,0.7,1.1,0.7,1.9v1.6c0,0.6-0.2,1-0.6,1.4c-0.4,0.4-1,0.6-1.9,0.6c-0.9,0-1.5-0.2-2-0.6C121.9,38.7,121.7,38.2,121.7,37.6z
		 M123.2,37.4c0,0.6,0.4,1,1.1,1c0,0,0,0,0,0c0.7,0,1.1-0.3,1.1-0.9v-0.8c-0.3,0-0.6-0.1-0.9-0.1C123.6,36.7,123.2,36.9,123.2,37.4z
		"/>
	<path class="st1" d="M128.5,39.6v-8.3h1.4v8.3H128.5z"/>
	<path class="st1" d="M131.9,39.6v-8.3h1.4v8.3H131.9z"/>
	<path class="st1" d="M137.5,39.6v-8h2.9c0.4,0,0.7,0,1,0.1s0.6,0.2,0.9,0.4c0.3,0.2,0.5,0.4,0.6,0.7s0.2,0.7,0.2,1.1
		c0,0.7-0.3,1.2-0.9,1.6c0.9,0.3,1.4,1,1.4,1.8c0,0.2,0,0.4-0.1,0.6c0,0.2-0.1,0.4-0.2,0.6s-0.3,0.4-0.5,0.6
		c-0.2,0.2-0.5,0.3-0.9,0.4c-0.4,0.1-0.8,0.2-1.3,0.2H137.5z M138.9,34.8h1.5c0.8,0,1.2-0.3,1.2-1c0-0.7-0.5-1.1-1.4-1.1h-1.4V34.8z
		 M138.9,38.3h1.7c1,0,1.6-0.4,1.6-1.2c0-0.7-0.5-1-1.6-1h-1.6V38.3z"/>
	<path class="st1" d="M145.4,38.9c-0.5-0.5-0.7-1.3-0.7-2.3s0.2-1.8,0.7-2.3s1.2-0.8,2.1-0.8s1.6,0.3,2.1,0.8s0.7,1.3,0.7,2.3
		s-0.2,1.8-0.7,2.3s-1.2,0.8-2.1,0.8S145.9,39.4,145.4,38.9z M146.5,35.1c-0.2,0.3-0.3,0.8-0.3,1.5s0.1,1.2,0.3,1.5s0.6,0.4,1.1,0.4
		s0.8-0.1,1-0.4s0.3-0.8,0.3-1.5s-0.1-1.2-0.3-1.5s-0.6-0.4-1-0.4S146.7,34.8,146.5,35.1z"/>
	<path class="st1" d="M151.1,39.6l2.1-3l-2.1-3h1.8l1.2,1.7l1.2-1.7h1.6l-2,2.8l2.2,3.2h-1.8l-1.3-1.9l-1.4,1.9H151.1z"/>
</g>
<g>
	<rect x="75.5" class="st2" width="5.1" height="39.3"/>
	<rect x="63.7" y="9.2" class="st2" width="5.1" height="30.1"/>
	<rect x="12.2" y="24" class="st2" width="5.1" height="15.3"/>
	<rect y="29.8" class="st2" width="5.1" height="9.5"/>
	<polygon class="st3" points="56.9,19.7 56.9,39.3 24,39.3 24,19.7 29.2,19.7 29.2,34.2 38,34.2 38,23.4 43.1,23.4 43.1,34.2 
		51.8,34.2 51.8,19.7 	"/>
	<polygon class="st3" points="49.8,1.1 49.8,14 44.7,14 44.7,6.2 36.3,6.2 36.3,14 31.1,14 31.1,1.1 	"/>
</g>
</svg>
